<svg width="106" height="106" viewBox="0 0 106 106" fill="none" xmlns="http://www.w3.org/2000/svg">
<g id="Group">
<g id="Group_2">
<path id="Vector" d="M0.548988 27.1037C9.1097 11.1507 25.9852 0.0555573 41.7713 0.0555573C66.7682 0.0555573 87.8911 25.1974 87.8911 54.9601V61.5486H103.264C104.13 61.5486 104.911 62.0581 105.267 62.8444C105.623 63.6306 105.478 64.5574 104.903 65.2031L69.7638 104.734C69.3509 105.204 68.7536 105.472 68.1255 105.472C67.4974 105.472 66.9 105.204 66.4827 104.734L31.3438 65.2031C30.7684 64.5574 30.6279 63.635 30.9793 62.8444C31.335 62.0537 32.1169 61.5486 32.9822 61.5486H48.4082C48.4038 61.3378 48.395 61.1226 48.3906 60.9073C48.373 60.389 48.3598 59.8707 48.3598 59.3524C48.3598 41.0011 38.5034 22.0174 22.0057 22.0174C15.931 22.0174 8.24879 26.2911 3.68074 30.2618C3.25468 30.6308 2.6749 30.8548 2.19613 30.8021C1.12878 30.8636 -0.0439758 29.8358 -0.0439758 28.6059C-0.0439758 28.0261 0.180031 27.4946 0.548988 27.1037Z" fill="#E1DFFF"/>
</g>
</g>
</svg>
